<?xml version="1.0" encoding="UTF-8" standalone="no"?>
<!DOCTYPE svg PUBLIC "-//W3C//DTD SVG 1.1//EN"
 "http://www.w3.org/Graphics/SVG/1.1/DTD/svg11.dtd">
<!-- Generated by graphviz version 2.26.3 (20100126.1600)
 -->
<!-- Title: G4 Pages: 1 -->
<svg width="576pt" height="52pt"
 viewBox="0.00 0.00 576.00 51.55" xmlns="http://www.w3.org/2000/svg" xmlns:xlink="http://www.w3.org/1999/xlink">
<g id="graph1" class="graph" transform="scale(0.18677 0.18677) rotate(0) translate(4 272)">
<title>G4</title>
<polygon fill="white" stroke="white" points="-4,5 -4,-272 3081,-272 3081,5 -4,5"/>
<!-- 43dfb7 -->
<g id="node1" class="node"><title>43dfb7</title>
<ellipse fill="none" stroke="black" cx="2242" cy="-104" rx="45.9619" ry="45.9619"/>
<text text-anchor="middle" x="2242" y="-100.4" font-family="Times Roman,serif" font-size="14.00">43dfb7</text>
</g>
<!-- 547526 -->
<g id="node3" class="node"><title>547526</title>
<ellipse fill="none" stroke="black" cx="2374" cy="-104" rx="50.2046" ry="50.2046"/>
<text text-anchor="middle" x="2374" y="-100.4" font-family="Times Roman,serif" font-size="14.00">547526</text>
</g>
<!-- 43dfb7&#45;&gt;547526 -->
<g id="edge2" class="edge"><title>43dfb7&#45;&gt;547526</title>
<path fill="none" stroke="black" d="M2288.17,-104C2296.31,-104 2304.89,-104 2313.36,-104"/>
<polygon fill="black" stroke="black" points="2313.58,-107.5 2323.58,-104 2313.58,-100.5 2313.58,-107.5"/>
</g>
<!-- a406a3 -->
<g id="node16" class="node"><title>a406a3</title>
<ellipse fill="none" stroke="black" cx="2509" cy="-104" rx="48.7904" ry="48.7904"/>
<text text-anchor="middle" x="2509" y="-100.4" font-family="Times Roman,serif" font-size="14.00">a406a3</text>
</g>
<!-- 547526&#45;&gt;a406a3 -->
<g id="edge72" class="edge"><title>547526&#45;&gt;a406a3</title>
<path fill="none" stroke="black" d="M2424.27,-104C2432.48,-104 2441.05,-104 2449.45,-104"/>
<polygon fill="black" stroke="black" points="2449.59,-107.5 2459.59,-104 2449.59,-100.5 2449.59,-107.5"/>
</g>
<!-- 0b3d63 -->
<g id="node4" class="node"><title>0b3d63</title>
<ellipse fill="none" stroke="black" cx="2771" cy="-104" rx="48.7904" ry="48.7904"/>
<text text-anchor="middle" x="2771" y="-100.4" font-family="Times Roman,serif" font-size="14.00">0b3d63</text>
</g>
<!-- e381f9 -->
<g id="node6" class="node"><title>e381f9</title>
<ellipse fill="none" stroke="black" cx="2902" cy="-104" rx="45.9619" ry="45.9619"/>
<text text-anchor="middle" x="2902" y="-100.4" font-family="Times Roman,serif" font-size="14.00">e381f9</text>
</g>
<!-- 0b3d63&#45;&gt;e381f9 -->
<g id="edge4" class="edge"><title>0b3d63&#45;&gt;e381f9</title>
<path fill="none" stroke="black" d="M2820.15,-104C2828.41,-104 2837.04,-104 2845.47,-104"/>
<polygon fill="black" stroke="black" points="2845.61,-107.5 2855.61,-104 2845.61,-100.5 2845.61,-107.5"/>
</g>
<!-- f491d0 -->
<g id="node51" class="node"><title>f491d0</title>
<ellipse fill="none" stroke="black" cx="3030" cy="-104" rx="45.9619" ry="45.9619"/>
<text text-anchor="middle" x="3030" y="-100.4" font-family="Times Roman,serif" font-size="14.00">f491d0</text>
</g>
<!-- e381f9&#45;&gt;f491d0 -->
<g id="edge58" class="edge"><title>e381f9&#45;&gt;f491d0</title>
<path fill="none" stroke="black" d="M2948.21,-104C2956.46,-104 2965.13,-104 2973.63,-104"/>
<polygon fill="black" stroke="black" points="2973.86,-107.5 2983.86,-104 2973.86,-100.5 2973.86,-107.5"/>
</g>
<!-- 20e32d -->
<g id="node7" class="node"><title>20e32d</title>
<ellipse fill="none" stroke="black" cx="927" cy="-104" rx="48.7904" ry="48.7904"/>
<text text-anchor="middle" x="927" y="-100.4" font-family="Times Roman,serif" font-size="14.00">20e32d</text>
</g>
<!-- 5c543c -->
<g id="node9" class="node"><title>5c543c</title>
<ellipse fill="none" stroke="black" cx="1059" cy="-104" rx="46.1672" ry="46.669"/>
<text text-anchor="middle" x="1059" y="-100.4" font-family="Times Roman,serif" font-size="14.00">5c543c</text>
</g>
<!-- 20e32d&#45;&gt;5c543c -->
<g id="edge6" class="edge"><title>20e32d&#45;&gt;5c543c</title>
<path fill="none" stroke="black" d="M974.282,-90.9946C983.945,-90.471 994.192,-90.3631 1004.1,-90.671"/>
<polygon fill="black" stroke="black" points="1004.1,-94.175 1014.25,-91.1424 1004.43,-87.1825 1004.1,-94.175"/>
</g>
<!-- 20e32d&#45;&gt;5c543c -->
<g id="edge8" class="edge"><title>20e32d&#45;&gt;5c543c</title>
<path fill="none" stroke="black" d="M976.152,-104C984.687,-104 993.624,-104 1002.34,-104"/>
<polygon fill="black" stroke="black" points="1002.43,-107.5 1012.43,-104 1002.43,-100.5 1002.43,-107.5"/>
</g>
<!-- 20e32d&#45;&gt;5c543c -->
<g id="edge10" class="edge"><title>20e32d&#45;&gt;5c543c</title>
<path fill="none" stroke="black" d="M974.282,-117.005C983.945,-117.529 994.192,-117.637 1004.1,-117.329"/>
<polygon fill="black" stroke="black" points="1004.43,-120.817 1014.25,-116.858 1004.1,-113.825 1004.43,-120.817"/>
</g>
<!-- 27ac21 -->
<g id="node36" class="node"><title>27ac21</title>
<ellipse fill="none" stroke="black" cx="1191" cy="-219" rx="48.0833" ry="48.0833"/>
<text text-anchor="middle" x="1191" y="-215.4" font-family="Times Roman,serif" font-size="14.00">27ac21</text>
</g>
<!-- 5c543c&#45;&gt;27ac21 -->
<g id="edge38" class="edge"><title>5c543c&#45;&gt;27ac21</title>
<path fill="none" stroke="black" d="M1094.03,-134.516C1110.19,-148.596 1129.55,-165.467 1146.71,-180.418"/>
<polygon fill="black" stroke="black" points="1144.59,-183.206 1154.43,-187.135 1149.18,-177.928 1144.59,-183.206"/>
</g>
<!-- 10ad17 -->
<g id="node38" class="node"><title>10ad17</title>
<ellipse fill="none" stroke="black" cx="1191" cy="-104" rx="48.7904" ry="48.7904"/>
<text text-anchor="middle" x="1191" y="-100.4" font-family="Times Roman,serif" font-size="14.00">10ad17</text>
</g>
<!-- 5c543c&#45;&gt;10ad17 -->
<g id="edge40" class="edge"><title>5c543c&#45;&gt;10ad17</title>
<path fill="none" stroke="black" d="M1105.17,-97.5285C1113.92,-97.2757 1123.18,-97.195 1132.26,-97.2864"/>
<polygon fill="black" stroke="black" points="1132.33,-100.788 1142.39,-97.4628 1132.46,-93.7892 1132.33,-100.788"/>
</g>
<!-- 5c543c&#45;&gt;10ad17 -->
<g id="edge42" class="edge"><title>5c543c&#45;&gt;10ad17</title>
<path fill="none" stroke="black" d="M1105.17,-110.471C1113.92,-110.724 1123.18,-110.805 1132.26,-110.714"/>
<polygon fill="black" stroke="black" points="1132.46,-114.211 1142.39,-110.537 1132.33,-107.212 1132.46,-114.211"/>
</g>
<!-- cd3e62 -->
<g id="node12" class="node"><title>cd3e62</title>
<ellipse fill="none" stroke="black" cx="1716" cy="-104" rx="46.8775" ry="47.3762"/>
<text text-anchor="middle" x="1716" y="-100.4" font-family="Times Roman,serif" font-size="14.00">cd3e62</text>
</g>
<!-- 7566b0 -->
<g id="node14" class="node"><title>7566b0</title>
<ellipse fill="none" stroke="black" cx="1850" cy="-104" rx="48.9975" ry="49.4975"/>
<text text-anchor="middle" x="1850" y="-100.4" font-family="Times Roman,serif" font-size="14.00">7566b0</text>
</g>
<!-- cd3e62&#45;&gt;7566b0 -->
<g id="edge12" class="edge"><title>cd3e62&#45;&gt;7566b0</title>
<path fill="none" stroke="black" d="M1763.24,-97.5179C1772.11,-97.2707 1781.49,-97.1946 1790.67,-97.2895"/>
<polygon fill="black" stroke="black" points="1790.86,-100.793 1800.92,-97.4692 1790.98,-93.7943 1790.86,-100.793"/>
</g>
<!-- cd3e62&#45;&gt;7566b0 -->
<g id="edge14" class="edge"><title>cd3e62&#45;&gt;7566b0</title>
<path fill="none" stroke="black" d="M1763.24,-110.482C1772.11,-110.729 1781.49,-110.805 1790.67,-110.711"/>
<polygon fill="black" stroke="black" points="1790.98,-114.206 1800.92,-110.531 1790.86,-107.207 1790.98,-114.206"/>
</g>
<!-- 84d9da -->
<g id="node75" class="node"><title>84d9da</title>
<ellipse fill="none" stroke="black" cx="1984" cy="-104" rx="48.0833" ry="48.0833"/>
<text text-anchor="middle" x="1984" y="-100.4" font-family="Times Roman,serif" font-size="14.00">84d9da</text>
</g>
<!-- 7566b0&#45;&gt;84d9da -->
<g id="edge108" class="edge"><title>7566b0&#45;&gt;84d9da</title>
<path fill="none" stroke="black" d="M1899.14,-97.4679C1907.93,-97.2487 1917.16,-97.1948 1926.17,-97.3065"/>
<polygon fill="black" stroke="black" points="1926.14,-100.807 1936.21,-97.5029 1926.28,-93.8079 1926.14,-100.807"/>
</g>
<!-- 7566b0&#45;&gt;84d9da -->
<g id="edge110" class="edge"><title>7566b0&#45;&gt;84d9da</title>
<path fill="none" stroke="black" d="M1899.14,-110.532C1907.93,-110.751 1917.16,-110.805 1926.17,-110.693"/>
<polygon fill="black" stroke="black" points="1926.28,-114.192 1936.21,-110.497 1926.14,-107.193 1926.28,-114.192"/>
</g>
<!-- 7cc47d -->
<g id="node18" class="node"><title>7cc47d</title>
<ellipse fill="none" stroke="black" cx="2640" cy="-104" rx="45.9619" ry="45.9619"/>
<text text-anchor="middle" x="2640" y="-100.4" font-family="Times Roman,serif" font-size="14.00">7cc47d</text>
</g>
<!-- a406a3&#45;&gt;7cc47d -->
<g id="edge16" class="edge"><title>a406a3&#45;&gt;7cc47d</title>
<path fill="none" stroke="black" d="M2558.15,-104C2566.41,-104 2575.04,-104 2583.47,-104"/>
<polygon fill="black" stroke="black" points="2583.61,-107.5 2593.61,-104 2583.61,-100.5 2583.61,-107.5"/>
</g>
<!-- 7cc47d&#45;&gt;0b3d63 -->
<g id="edge64" class="edge"><title>7cc47d&#45;&gt;0b3d63</title>
<path fill="none" stroke="black" d="M2686.19,-104C2694.36,-104 2702.97,-104 2711.44,-104"/>
<polygon fill="black" stroke="black" points="2711.68,-107.5 2721.68,-104 2711.68,-100.5 2711.68,-107.5"/>
</g>
<!-- top -->
<g id="node19" class="node"><title>top</title>
<ellipse fill="none" stroke="black" cx="28" cy="-104" rx="27.0758" ry="27.5772"/>
<text text-anchor="middle" x="28" y="-100.4" font-family="Times Roman,serif" font-size="14.00">top</text>
</g>
<!-- bf7ec9 -->
<g id="node21" class="node"><title>bf7ec9</title>
<ellipse fill="none" stroke="black" cx="141" cy="-160" rx="43.8406" ry="43.8406"/>
<text text-anchor="middle" x="141" y="-156.4" font-family="Times Roman,serif" font-size="14.00">bf7ec9</text>
</g>
<!-- top&#45;&gt;bf7ec9 -->
<g id="edge22" class="edge"><title>top&#45;&gt;bf7ec9</title>
<path fill="none" stroke="black" d="M55.6429,-105.905C68.629,-110.657 84.3953,-118.033 98.8265,-125.993"/>
<polygon fill="black" stroke="black" points="97.1834,-129.085 107.603,-131.007 100.656,-123.007 97.1834,-129.085"/>
</g>
<!-- top&#45;&gt;bf7ec9 -->
<g id="edge26" class="edge"><title>top&#45;&gt;bf7ec9</title>
<path fill="none" stroke="black" d="M46.9137,-123.757C58.3603,-131.707 73.5738,-140.276 88.424,-147.416"/>
<polygon fill="black" stroke="black" points="87.0414,-150.632 97.5865,-151.658 89.9827,-144.28 87.0414,-150.632"/>
</g>
<!-- top&#45;&gt;bf7ec9 -->
<g id="edge18" class="edge"><title>top&#45;&gt;bf7ec9</title>
<path fill="none" stroke="black" d="M52.7983,-116.289C64.3057,-121.992 78.4071,-128.981 91.9306,-135.682"/>
<polygon fill="black" stroke="black" points="90.6474,-138.953 101.162,-140.257 93.7557,-132.681 90.6474,-138.953"/>
</g>
<!-- b1a271 -->
<g id="node23" class="node"><title>b1a271</title>
<ellipse fill="none" stroke="black" cx="141" cy="-49" rx="48.7904" ry="48.7904"/>
<text text-anchor="middle" x="141" y="-45.4" font-family="Times Roman,serif" font-size="14.00">b1a271</text>
</g>
<!-- top&#45;&gt;b1a271 -->
<g id="edge24" class="edge"><title>top&#45;&gt;b1a271</title>
<path fill="none" stroke="black" d="M47.1689,-84.236C57.4011,-77.2457 70.5901,-69.8046 83.8282,-63.3278"/>
<polygon fill="black" stroke="black" points="85.4157,-66.4489 92.9652,-59.0154 82.4279,-60.1185 85.4157,-66.4489"/>
</g>
<!-- top&#45;&gt;b1a271 -->
<g id="edge28" class="edge"><title>top&#45;&gt;b1a271</title>
<path fill="none" stroke="black" d="M55.6429,-102.34C67.2161,-98.2069 80.9973,-92.0099 94.0738,-85.1664"/>
<polygon fill="black" stroke="black" points="95.8527,-88.1834 102.978,-80.3428 92.5185,-82.0284 95.8527,-88.1834"/>
</g>
<!-- top&#45;&gt;b1a271 -->
<g id="edge20" class="edge"><title>top&#45;&gt;b1a271</title>
<path fill="none" stroke="black" d="M52.7983,-91.93C63.049,-86.9408 75.3581,-80.9496 87.4834,-75.0479"/>
<polygon fill="black" stroke="black" points="89.223,-78.0938 96.6827,-70.5704 86.1595,-71.7998 89.223,-78.0938"/>
</g>
<!-- c95a6b -->
<g id="node30" class="node"><title>c95a6b</title>
<ellipse fill="none" stroke="black" cx="274" cy="-104" rx="46.8775" ry="47.3762"/>
<text text-anchor="middle" x="274" y="-100.4" font-family="Times Roman,serif" font-size="14.00">c95a6b</text>
</g>
<!-- bf7ec9&#45;&gt;c95a6b -->
<g id="edge102" class="edge"><title>bf7ec9&#45;&gt;c95a6b</title>
<path fill="none" stroke="black" d="M175.944,-133.24C188.576,-126.664 203.185,-120.071 217.206,-114.542"/>
<polygon fill="black" stroke="black" points="218.685,-117.724 226.787,-110.897 216.196,-111.181 218.685,-117.724"/>
</g>
<!-- bf7ec9&#45;&gt;c95a6b -->
<g id="edge104" class="edge"><title>bf7ec9&#45;&gt;c95a6b</title>
<path fill="none" stroke="black" d="M181.627,-142.894C193.921,-137.717 207.614,-131.952 220.61,-126.48"/>
<polygon fill="black" stroke="black" points="222.063,-129.666 229.921,-122.56 219.346,-123.215 222.063,-129.666"/>
</g>
<!-- bf7ec9&#45;&gt;c95a6b -->
<g id="edge106" class="edge"><title>bf7ec9&#45;&gt;c95a6b</title>
<path fill="none" stroke="black" d="M184.918,-154.291C198.32,-149.531 213.11,-143.371 226.725,-136.891"/>
<polygon fill="black" stroke="black" points="228.5,-139.919 235.931,-132.367 225.412,-133.636 228.5,-139.919"/>
</g>
<!-- b1a271&#45;&gt;c95a6b -->
<g id="edge48" class="edge"><title>b1a271&#45;&gt;c95a6b</title>
<path fill="none" stroke="black" d="M189.769,-56.1035C201.703,-60.4388 214.458,-65.7328 226.339,-71.2843"/>
<polygon fill="black" stroke="black" points="225.121,-74.5824 235.648,-75.7782 228.164,-68.2786 225.121,-74.5824"/>
</g>
<!-- b1a271&#45;&gt;c95a6b -->
<g id="edge50" class="edge"><title>b1a271&#45;&gt;c95a6b</title>
<path fill="none" stroke="black" d="M186.399,-67.7741C197.452,-72.3447 209.372,-77.2741 220.752,-81.9803"/>
<polygon fill="black" stroke="black" points="219.576,-85.2811 230.154,-85.8683 222.251,-78.8124 219.576,-85.2811"/>
</g>
<!-- b1a271&#45;&gt;c95a6b -->
<g id="edge52" class="edge"><title>b1a271&#45;&gt;c95a6b</title>
<path fill="none" stroke="black" d="M180.904,-77.9924C192.255,-83.5943 204.843,-89.0954 216.999,-93.8051"/>
<polygon fill="black" stroke="black" points="216.031,-97.1795 226.623,-97.3993 218.48,-90.6219 216.031,-97.1795"/>
</g>
<!-- c6e96c -->
<g id="node28" class="node"><title>c6e96c</title>
<ellipse fill="none" stroke="black" cx="2114" cy="-104" rx="45.9619" ry="45.9619"/>
<text text-anchor="middle" x="2114" y="-100.4" font-family="Times Roman,serif" font-size="14.00">c6e96c</text>
</g>
<!-- c6e96c&#45;&gt;43dfb7 -->
<g id="edge30" class="edge"><title>c6e96c&#45;&gt;43dfb7</title>
<path fill="none" stroke="black" d="M2160.21,-104C2168.46,-104 2177.13,-104 2185.63,-104"/>
<polygon fill="black" stroke="black" points="2185.86,-107.5 2195.86,-104 2185.86,-100.5 2185.86,-107.5"/>
</g>
<!-- cdb091 -->
<g id="node32" class="node"><title>cdb091</title>
<ellipse fill="none" stroke="black" cx="406" cy="-104" rx="46.8775" ry="47.3762"/>
<text text-anchor="middle" x="406" y="-100.4" font-family="Times Roman,serif" font-size="14.00">cdb091</text>
</g>
<!-- c95a6b&#45;&gt;cdb091 -->
<g id="edge32" class="edge"><title>c95a6b&#45;&gt;cdb091</title>
<path fill="none" stroke="black" d="M319.797,-91.0786C329.626,-90.4988 340.116,-90.3547 350.274,-90.6465"/>
<polygon fill="black" stroke="black" points="350.141,-94.1439 360.284,-91.0834 350.446,-87.1505 350.141,-94.1439"/>
</g>
<!-- c95a6b&#45;&gt;cdb091 -->
<g id="edge34" class="edge"><title>c95a6b&#45;&gt;cdb091</title>
<path fill="none" stroke="black" d="M321.655,-104C330.254,-104 339.303,-104 348.155,-104"/>
<polygon fill="black" stroke="black" points="348.415,-107.5 358.415,-104 348.415,-100.5 348.415,-107.5"/>
</g>
<!-- c95a6b&#45;&gt;cdb091 -->
<g id="edge36" class="edge"><title>c95a6b&#45;&gt;cdb091</title>
<path fill="none" stroke="black" d="M319.797,-116.921C329.626,-117.501 340.116,-117.645 350.274,-117.354"/>
<polygon fill="black" stroke="black" points="350.446,-120.849 360.284,-116.917 350.141,-113.856 350.446,-120.849"/>
</g>
<!-- 6e89a9 -->
<g id="node61" class="node"><title>6e89a9</title>
<ellipse fill="none" stroke="black" cx="539" cy="-104" rx="48.7904" ry="48.7904"/>
<text text-anchor="middle" x="539" y="-100.4" font-family="Times Roman,serif" font-size="14.00">6e89a9</text>
</g>
<!-- cdb091&#45;&gt;6e89a9 -->
<g id="edge86" class="edge"><title>cdb091&#45;&gt;6e89a9</title>
<path fill="none" stroke="black" d="M451.771,-91.1007C461.252,-90.5342 471.357,-90.3684 481.203,-90.6033"/>
<polygon fill="black" stroke="black" points="481.206,-94.1059 491.333,-90.9932 481.475,-87.1111 481.206,-94.1059"/>
</g>
<!-- cdb091&#45;&gt;6e89a9 -->
<g id="edge88" class="edge"><title>cdb091&#45;&gt;6e89a9</title>
<path fill="none" stroke="black" d="M453.64,-104C462.105,-104 471.014,-104 479.754,-104"/>
<polygon fill="black" stroke="black" points="479.899,-107.5 489.899,-104 479.899,-100.5 479.899,-107.5"/>
</g>
<!-- cdb091&#45;&gt;6e89a9 -->
<g id="edge90" class="edge"><title>cdb091&#45;&gt;6e89a9</title>
<path fill="none" stroke="black" d="M451.771,-116.899C461.252,-117.466 471.357,-117.632 481.203,-117.397"/>
<polygon fill="black" stroke="black" points="481.475,-120.889 491.333,-117.007 481.206,-113.894 481.475,-120.889"/>
</g>
<!-- d78930 -->
<g id="node72" class="node"><title>d78930</title>
<ellipse fill="none" stroke="black" cx="1326" cy="-219" rx="48.9975" ry="49.4975"/>
<text text-anchor="middle" x="1326" y="-215.4" font-family="Times Roman,serif" font-size="14.00">d78930</text>
</g>
<!-- 27ac21&#45;&gt;d78930 -->
<g id="edge92" class="edge"><title>27ac21&#45;&gt;d78930</title>
<path fill="none" stroke="black" d="M1239.36,-219C1248.04,-219 1257.19,-219 1266.15,-219"/>
<polygon fill="black" stroke="black" points="1266.16,-222.5 1276.16,-219 1266.16,-215.5 1266.16,-222.5"/>
</g>
<!-- 1ea8e2 -->
<g id="node47" class="node"><title>1ea8e2</title>
<ellipse fill="none" stroke="black" cx="1326" cy="-104" rx="48.0833" ry="48.0833"/>
<text text-anchor="middle" x="1326" y="-100.4" font-family="Times Roman,serif" font-size="14.00">1ea8e2</text>
</g>
<!-- 10ad17&#45;&gt;1ea8e2 -->
<g id="edge94" class="edge"><title>10ad17&#45;&gt;1ea8e2</title>
<path fill="none" stroke="black" d="M1239.74,-97.4873C1248.95,-97.2487 1258.66,-97.19 1268.11,-97.3112"/>
<polygon fill="black" stroke="black" points="1268.17,-100.813 1278.24,-97.5133 1268.31,-93.8143 1268.17,-100.813"/>
</g>
<!-- 10ad17&#45;&gt;1ea8e2 -->
<g id="edge96" class="edge"><title>10ad17&#45;&gt;1ea8e2</title>
<path fill="none" stroke="black" d="M1239.74,-110.513C1248.95,-110.751 1258.66,-110.81 1268.11,-110.689"/>
<polygon fill="black" stroke="black" points="1268.31,-114.186 1278.24,-110.487 1268.17,-107.187 1268.31,-114.186"/>
</g>
<!-- 417bca -->
<g id="node40" class="node"><title>417bca</title>
<ellipse fill="none" stroke="black" cx="1460" cy="-104" rx="46.8775" ry="47.3762"/>
<text text-anchor="middle" x="1460" y="-100.4" font-family="Times Roman,serif" font-size="14.00">417bca</text>
</g>
<!-- 84f8f9 -->
<g id="node42" class="node"><title>84f8f9</title>
<ellipse fill="none" stroke="black" cx="1588" cy="-104" rx="43.8406" ry="43.8406"/>
<text text-anchor="middle" x="1588" y="-100.4" font-family="Times Roman,serif" font-size="14.00">84f8f9</text>
</g>
<!-- 417bca&#45;&gt;84f8f9 -->
<g id="edge44" class="edge"><title>417bca&#45;&gt;84f8f9</title>
<path fill="none" stroke="black" d="M1507.3,-97.4586C1516,-97.2366 1525.15,-97.1918 1534.03,-97.3242"/>
<polygon fill="black" stroke="black" points="1534.21,-100.829 1544.29,-97.5609 1534.37,-93.8311 1534.21,-100.829"/>
</g>
<!-- 417bca&#45;&gt;84f8f9 -->
<g id="edge46" class="edge"><title>417bca&#45;&gt;84f8f9</title>
<path fill="none" stroke="black" d="M1507.3,-110.541C1516,-110.763 1525.15,-110.808 1534.03,-110.676"/>
<polygon fill="black" stroke="black" points="1534.37,-114.169 1544.29,-110.439 1534.21,-107.171 1534.37,-114.169"/>
</g>
<!-- 84f8f9&#45;&gt;cd3e62 -->
<g id="edge60" class="edge"><title>84f8f9&#45;&gt;cd3e62</title>
<path fill="none" stroke="black" d="M1631.69,-97.5616C1640.32,-97.2882 1649.5,-97.1947 1658.51,-97.2811"/>
<polygon fill="black" stroke="black" points="1658.5,-100.781 1668.56,-97.455 1658.62,-93.7825 1658.5,-100.781"/>
</g>
<!-- 84f8f9&#45;&gt;cd3e62 -->
<g id="edge62" class="edge"><title>84f8f9&#45;&gt;cd3e62</title>
<path fill="none" stroke="black" d="M1631.69,-110.438C1640.32,-110.712 1649.5,-110.805 1658.51,-110.719"/>
<polygon fill="black" stroke="black" points="1658.62,-114.217 1668.56,-110.545 1658.5,-107.219 1658.62,-114.217"/>
</g>
<!-- 1ea8e2&#45;&gt;417bca -->
<g id="edge54" class="edge"><title>1ea8e2&#45;&gt;417bca</title>
<path fill="none" stroke="black" d="M1373.62,-97.5075C1382.9,-97.2543 1392.73,-97.1879 1402.29,-97.308"/>
<polygon fill="black" stroke="black" points="1402.47,-100.812 1412.53,-97.5117 1402.6,-93.8135 1402.47,-100.812"/>
</g>
<!-- 1ea8e2&#45;&gt;417bca -->
<g id="edge56" class="edge"><title>1ea8e2&#45;&gt;417bca</title>
<path fill="none" stroke="black" d="M1373.62,-110.493C1382.9,-110.746 1392.73,-110.812 1402.29,-110.692"/>
<polygon fill="black" stroke="black" points="1402.6,-114.187 1412.53,-110.488 1402.47,-107.188 1402.6,-114.187"/>
</g>
<!-- adf991 -->
<g id="node55" class="node"><title>adf991</title>
<ellipse fill="none" stroke="black" cx="670" cy="-104" rx="45.9619" ry="45.9619"/>
<text text-anchor="middle" x="670" y="-100.4" font-family="Times Roman,serif" font-size="14.00">adf991</text>
</g>
<!-- ac88f6 -->
<g id="node57" class="node"><title>ac88f6</title>
<ellipse fill="none" stroke="black" cx="797" cy="-104" rx="44.0472" ry="44.5477"/>
<text text-anchor="middle" x="797" y="-100.4" font-family="Times Roman,serif" font-size="14.00">ac88f6</text>
</g>
<!-- adf991&#45;&gt;ac88f6 -->
<g id="edge66" class="edge"><title>adf991&#45;&gt;ac88f6</title>
<path fill="none" stroke="black" d="M714.418,-91.057C723.974,-90.4831 734.166,-90.3527 744.011,-90.6657"/>
<polygon fill="black" stroke="black" points="743.946,-94.1666 754.103,-91.1525 744.283,-87.1747 743.946,-94.1666"/>
</g>
<!-- adf991&#45;&gt;ac88f6 -->
<g id="edge68" class="edge"><title>adf991&#45;&gt;ac88f6</title>
<path fill="none" stroke="black" d="M716.209,-104C724.671,-104 733.577,-104 742.259,-104"/>
<polygon fill="black" stroke="black" points="742.31,-107.5 752.31,-104 742.31,-100.5 742.31,-107.5"/>
</g>
<!-- adf991&#45;&gt;ac88f6 -->
<g id="edge70" class="edge"><title>adf991&#45;&gt;ac88f6</title>
<path fill="none" stroke="black" d="M714.418,-116.943C723.974,-117.517 734.166,-117.647 744.011,-117.334"/>
<polygon fill="black" stroke="black" points="744.283,-120.825 754.103,-116.847 743.946,-113.833 744.283,-120.825"/>
</g>
<!-- ac88f6&#45;&gt;20e32d -->
<g id="edge80" class="edge"><title>ac88f6&#45;&gt;20e32d</title>
<path fill="none" stroke="black" d="M839.927,-91.2171C849.368,-90.5807 859.514,-90.3679 869.427,-90.5786"/>
<polygon fill="black" stroke="black" points="869.512,-94.084 879.633,-90.9516 869.768,-87.0887 869.512,-94.084"/>
</g>
<!-- ac88f6&#45;&gt;20e32d -->
<g id="edge82" class="edge"><title>ac88f6&#45;&gt;20e32d</title>
<path fill="none" stroke="black" d="M841.739,-104C850.079,-104 858.915,-104 867.615,-104"/>
<polygon fill="black" stroke="black" points="867.728,-107.5 877.728,-104 867.728,-100.5 867.728,-107.5"/>
</g>
<!-- ac88f6&#45;&gt;20e32d -->
<g id="edge84" class="edge"><title>ac88f6&#45;&gt;20e32d</title>
<path fill="none" stroke="black" d="M839.927,-116.783C849.368,-117.419 859.514,-117.632 869.427,-117.421"/>
<polygon fill="black" stroke="black" points="869.768,-120.911 879.633,-117.048 869.512,-113.916 869.768,-120.911"/>
</g>
<!-- 6e89a9&#45;&gt;adf991 -->
<g id="edge74" class="edge"><title>6e89a9&#45;&gt;adf991</title>
<path fill="none" stroke="black" d="M586.294,-90.9746C595.659,-90.4745 605.563,-90.3696 615.154,-90.66"/>
<polygon fill="black" stroke="black" points="615.248,-94.1679 625.398,-91.1302 615.569,-87.1753 615.248,-94.1679"/>
</g>
<!-- 6e89a9&#45;&gt;adf991 -->
<g id="edge76" class="edge"><title>6e89a9&#45;&gt;adf991</title>
<path fill="none" stroke="black" d="M588.152,-104C596.411,-104 605.039,-104 613.466,-104"/>
<polygon fill="black" stroke="black" points="613.607,-107.5 623.607,-104 613.607,-100.5 613.607,-107.5"/>
</g>
<!-- 6e89a9&#45;&gt;adf991 -->
<g id="edge78" class="edge"><title>6e89a9&#45;&gt;adf991</title>
<path fill="none" stroke="black" d="M586.294,-117.025C595.659,-117.526 605.563,-117.63 615.154,-117.34"/>
<polygon fill="black" stroke="black" points="615.569,-120.825 625.398,-116.87 615.248,-113.832 615.569,-120.825"/>
</g>
<!-- 84d9da&#45;&gt;c6e96c -->
<g id="edge98" class="edge"><title>84d9da&#45;&gt;c6e96c</title>
<path fill="none" stroke="black" d="M2031.67,-97.4679C2040.21,-97.2483 2049.18,-97.1947 2057.94,-97.307"/>
<polygon fill="black" stroke="black" points="2058,-100.809 2068.07,-97.5151 2058.14,-93.8105 2058,-100.809"/>
</g>
<!-- 84d9da&#45;&gt;c6e96c -->
<g id="edge100" class="edge"><title>84d9da&#45;&gt;c6e96c</title>
<path fill="none" stroke="black" d="M2031.67,-110.532C2040.21,-110.752 2049.18,-110.805 2057.94,-110.693"/>
<polygon fill="black" stroke="black" points="2058.14,-114.19 2068.07,-110.485 2058,-107.191 2058.14,-114.19"/>
</g>
</g>
</svg>
